<svg width="27" height="27" fill="none" xmlns="http://www.w3.org/2000/svg"><path d="M11.562 12.525h.086l.043-.075a2.1 2.1 0 01.76-.759l.074-.043V7.875a.975.975 0 111.95 0V11.648l.075.044a2.093 2.093 0 11-2.858 2.858l-.044-.075H9a.975.975 0 110-1.95h2.562zm15.288.975a13.35 13.35 0 01-26.7 0 .975.975 0 111.95 0A11.4 11.4 0 1013.5 2.1a.975.975 0 010-1.95A13.365 13.365 0 0126.85 13.5zM2.597 9.568a.975.975 0 11-1.083-1.622.975.975 0 011.083 1.622zM5.29 5.544a.975.975 0 11-1.083-1.622.975.975 0 011.083 1.622zm4.003-2.662A.975.975 0 118.21 1.26a.975.975 0 011.083 1.622z" fill="#000" stroke="#fff" stroke-width=".3"/></svg>